<?xml version="1.0" encoding="utf-8"?>
<!-- Generator: Adobe Illustrator 24.1.1, SVG Export Plug-In . SVG Version: 6.00 Build 0)  -->
<svg version="1.1" id="圖層_1" xmlns="http://www.w3.org/2000/svg" xmlns:xlink="http://www.w3.org/1999/xlink" x="0px" y="0px"
	 viewBox="0 0 216.31 226.77" style="enable-background:new 0 0 216.31 226.77;" xml:space="preserve">
<style type="text/css">
	.st0{fill:#010101;}
</style>
<path class="st0" d="M103.92,47.53c-5.34,15.73-9.26,31.58-21.01,43.69c11.52-18.96,17.73-39.91,23.49-61.37
	c5.11,21.56,12.31,42.09,23.58,61.08c-3.37-1.33-8.37-9.19-12.76-19.85c-3.08-7.46-5.69-15.12-8.57-22.85
	c-1.78,2.07-1.08,4.33-1.09,6.4c-0.04,46.62-0.01,93.24-0.11,139.86c0,1.67,1.42,4.78-1.25,4.86c-1.93,0.06-0.96-3.03-0.96-4.66
	c-0.07-46.79-0.05-93.57-0.07-140.36C105.17,52.22,105.59,50.01,103.92,47.53z"/>
</svg>
