<?xml version="1.0" encoding="utf-8"?>
<!-- Generator: Adobe Illustrator 24.1.1, SVG Export Plug-In . SVG Version: 6.00 Build 0)  -->
<svg version="1.1" id="圖層_1" xmlns="http://www.w3.org/2000/svg" xmlns:xlink="http://www.w3.org/1999/xlink" x="0px" y="0px"
	 viewBox="0 0 596.8 118" style="enable-background:new 0 0 596.8 118;" xml:space="preserve">
<g>
	<path d="M251.7,44.1c-3.4-2.2-6.5-5.4-11.4-4.3c-5.9,1.3-11,4-15.7,7.6c-8.3,6.4-17.4,11.6-26.6,16.7c-0.7,0.4-1.3,0.7-2,1
		c-0.9,0.4-2,0.9-2.8,0c-0.7-0.7-0.2-1.7,0.1-2.5c1.1-2.7,2.6-5.1,4.3-7.5c2.7-3.7,5.6-7.4,8.8-10.7c0.7-0.7,1.6-1.4,1.2-2.5
		c-0.4-1.1-1.6-1.1-2.5-1.2c-2.9-0.5-5.3,0.3-7.6,2.3c-6.7,5.8-14,10.7-22.6,15.2c2.3-6.3,4-11.9,4-17.8c0-1.7,0.7-3.7-1.6-4.4
		c-2.4-0.7-4.9-2.3-7.3,0.1c-5.8,5.9-12.8,10.3-19.6,15c-6.1,4.3-12.4,8.4-19.2,11.6c-4.2,2-8.5,3.6-13.3,3.6c-1,0-2.2,0.2-2.5-1.1
		c-0.5-2.3,0.9-4,2.1-5.8c1.1-1.7,2.3-0.9,3.5-0.1c1,0.7,2.1,0.4,3.2,0c6.5-2.3,12.1-5.9,16.8-10.9c1.9-2.1,3.6-4.5,1.9-7.4
		c-1.7-3-4.5-4.3-7.9-3.5c-12.5,3-21.2,10.6-26.5,22.2c-1.1,2.3-1.2,4.8-0.9,7.4c0.8,5.3,3.3,7.4,8.6,7.2c5.5-0.2,10.4-2.5,15.1-5.1
		c10.9-6,21.4-12.9,31.2-20.5c1.2-0.9,2.3-1.9,3.6-2.7c1.8-1.2,2.8-0.8,2.6,1.6c-0.7,5.7-2.6,10.9-6.6,15.2
		c-3.2,3.4-7.6,2.9-10.6-0.9c-0.5-0.7-0.8-1.7-1.9-1.4c-1.1,0.3-1.5,1.2-1.8,2.2c-1.4,6.4,4.5,12.5,10.9,11.2c3-0.6,5.7-1.9,8.3-3.4
		c6-3.4,11.5-7.5,16.8-11.9c0.9-0.8,1.8-1.9,3.6-2.1c-1.5,2.9-2.9,5.3-3.4,8c-1.3,6,2.1,10.1,8.2,10c3.1-0.1,5.8-1.2,8.4-2.8
		c2.9-1.8,5.7-3.7,8.7-5.7c-0.4,7,3.7,9.9,9.7,6.9c3.1-1.5,5.8-3.6,9.1-5.7c-3.6,4.5-6.8,8.6-10.2,12.6
		c-6.8,8.1-13.8,16.1-22.2,22.8c-1.1,0.8-2.5,2.7-3.7,1.5c-1-1.1,0.7-2.7,1.6-3.8c5.1-6.2,11.3-11.3,17.7-16c1-0.8,2.4-1.3,2.9-2.7
		c-2.2-0.8-3.9,0-5.6,0.8c-6.8,3.1-12.8,7.2-18,12.6c-1.2,1.2-2.2,2.7-3,4.3c-2.4,5.2,0.6,10,6.3,10.4c2.8,0.2,5.1-0.9,7.5-2.1
		c7.5-4,13.5-9.8,18.6-16.6c10.5-14.2,20.2-29.1,31.3-42.9C252.5,46.6,253.1,45,251.7,44.1z M136.2,43.4c-3.4,4.9-8.2,8.2-13.7,10.5
		C126.2,49.3,130.3,45.2,136.2,43.4z M220.8,63.7c6.1-8.3,14-14.3,23.7-17.7C237.6,53.3,230.1,59.8,220.8,63.7z"/>
	<path d="M33.9,40.9c2.1,0.5,3.7-0.3,5.2-1c6.2-2.7,12.3-5.5,17.6-9.7c0.8-0.7,2-1.9,2.9-1c1.3,1.1-0.1,2.3-0.8,3.2
		c-5,6.3-10.6,12-18.4,14.8c-4.7,1.7-8.8,0.6-11.8-3.1c-3-3.5-2.3-7.8-0.6-11.7c1.5-3.5,4.4-6,7.5-8.3c11.3-8.4,24.2-12.6,38-14.8
		c9.4-1.5,18.7-1.2,27.7,2.2c3.7,1.4,6.9,3.5,9.4,6.5c4.6,5.4,6.9,11.4,3.8,18.3c-9.9,22-25.5,37.4-49.8,42.3
		c-9.6,1.9-13.1-2-10.8-12.4c-5.9,4.4-11.2,8.4-16.5,12.4c-2.7,2-5.1,1.6-6.4-1.2c-0.9-2,0.3-3.6,1.2-5.2
		c5.4-8.6,11.4-16.7,18.1-24.3c8.7-9.9,18.4-18.7,28.9-26.6c0.6-0.4,1.2-0.9,1.9-1.2c1.8-0.8,3.5-0.5,4.8,1c1.5,1.8-0.4,2.7-1.3,3.7
		c-10.8,10.6-21.1,21.6-31.1,33c-1.7,2-3.3,4-4.7,6.4c5.2-2.7,10.2-5.5,15.3-8c1.8-0.9,3.2-1.1,4.5,0.8c1.2,1.5,1.4,2.8,0,4.2
		c-1.5,1.5-3,3.1-4.3,4.7c-0.6,0.7-1.8,1.5-1.1,2.5c0.6,0.8,1.9,0.4,2.8,0.1c2-0.6,4.1-1.3,6-2.2C84.3,60,95,51.7,104,41.3
		c1.1-1.2,2-2.6,2.9-3.9c4.8-7.4,3.4-12.4-4.6-16.3c-4.7-2.3-9.8-3.1-14.9-3c-18,0.4-34.2,6.3-48.6,17.2
		C36.9,36.8,34.9,38.3,33.9,40.9z"/>
	<path d="M266.2,57.1c-3.8,3-7.5,5.9-11.3,8.9c-2.6,2-5.1,4.1-8,5.5c-1.7,0.8-3.5,1-4.8-0.7c-1.3-1.7-0.7-3.3,0.8-4.6
		c7.6-6.9,13.5-15,18.8-23.7c1.2-1.9,2.5-3.4,5.2-2.4c2.4,1,3.2,2.2,1.5,4.5c-2.3,3.1-4.5,6.2-6.2,9.9c5-3.8,10.1-7.5,15.1-11.3
		c0.9-0.7,1.7-1.5,2.7-2c2.4-1.1,4.9-1,6.5,1c1.4,1.8-0.8,3.1-1.9,4.3c-2.9,3.4-6,6.7-9,10c-1.1,1.2-2,2.5-3,3.9
		c-1.2,1.8-2.6,4.2-1.2,5.8c1.5,1.8,3.7-0.3,5.3-1.1c7-3.6,13.1-8.7,19.4-13.3c2.9-2.2,5.8-4.3,8.8-6.4c0.6-0.5,1.4-1.3,2.3-0.3
		c0.7,0.8,0.4,1.7-0.2,2.4c-0.4,0.5-0.8,1-1.2,1.4c-8.2,8.2-17.1,15.7-26.5,22.5c-1.6,1.1-3.4,2.2-5.1,3.1c-3.7,1.8-7.5,1.6-9.8-0.6
		c-2.3-2.1-3-6.6-1.3-10.1c1-2.2,2.5-4.2,3.8-6.2C266.5,57.4,266.3,57.3,266.2,57.1z"/>
	<path d="M561.4,66.2c-2.5-0.2-5-0.1-7.5-0.4c-1.3-0.1-3.3,0.3-3.3-1.5c-0.1-2.4,2.1-1.4,3.4-1.6c1.8-0.3,3.7-0.4,5.5-0.9
		c5-1.4,8.1-5.9,7.2-10.7c-0.4-2.2-0.8-3.8,2.2-4.3c1.4-0.2,1.3-1.6,1.3-2.8c0-1.2-0.5-1.8-1.8-1.9c-5.5-0.2-10.9-0.8-16.4-0.5
		c-4.1,0.2-7.9,1.9-9.4,6.2c-1.5,4.1-1.2,8.2,2.3,11.4c1.2,1.1,1.3,1.8,0,2.9c-2,1.7-2.5,3.9-0.9,6c1.4,1.8,0.8,2.2-0.8,3.2
		c-5.1,3.2-4.8,9.8,0.6,12.7c2.8,1.5,5.9,1.8,9.2,1.9c4.5-0.3,9.1-0.5,13-3.4c3.4-2.5,4.8-6.6,3.6-10.6
		C568.6,68.4,566,66.6,561.4,66.2z M554.4,47.1c3.3,0,4.1,2.2,4.2,5c-0.1,2.7-0.8,4.9-4.1,5.1c-2.7,0.1-4.5-2-4.5-5.3
		C550.1,48.8,551.6,47.1,554.4,47.1z M560.7,78.4c-2.3,1.7-5,1.4-7,1.7c-0.6,0-0.7,0-0.9,0c-2.4-0.3-5.6-0.1-5.6-3.5
		c0-3.3,3-3.4,5.6-3.4c2.2,0,4.5,0.1,6.7,0.2c1.2,0,2.2,0.7,2.5,1.8C562.5,76.6,561.8,77.6,560.7,78.4z"/>
	<path d="M464.4,55.2c3.8-4.2,6.8-7.5,9.9-10.9c1.6-1.7,7.8-3,9.7-1.9c1.6,0.9,0.2,1.7-0.3,2.3c-2.6,3-5.3,6-8.1,8.8
		c-1.4,1.4-1.5,2.5-0.2,4.1c3.2,4.1,6.3,8.4,9.4,12.6c1.4,1.8,0.9,2.3-1.3,2.6c-4.6,0.5-8.3-0.5-10.4-5c-0.8-1.7-2.1-3.1-3.2-4.6
		c-0.6-0.8-0.9-2.4-2.4-1.8c-1.2,0.5-2.4,1.4-2.5,3c-0.1,1-0.1,2-0.1,3c0,5.4-1.7,6.6-7,5.4c-1.5-0.3-1.7-1.3-1.7-2.4
		c0-12.5,0-24.9,0-37.4c0-1.6,0.6-2.4,2.4-2.6c6-0.5,6.4-0.3,6.4,5.8C464.9,42.1,465.1,48.1,464.4,55.2z"/>
	<path d="M430.1,55c3.7-4.1,6.9-7.6,10.1-11c1.4-1.5,7.8-2.5,9.5-1.6c1.4,0.7,0.4,1.5-0.1,2c-2.1,2.4-4.4,4.8-6.5,7.2
		c-4.2,4.7-3.9,3.1-0.3,8.1c2.5,3.5,5,6.8,7.6,10.2c1.4,1.9,1.3,2.5-1.3,2.8c-4.5,0.5-8-0.5-10.1-4.9c-0.8-1.7-2.1-3.1-3.2-4.6
		c-0.7-0.9-1-2.7-2.7-1.9c-1.4,0.6-2.5,1.7-2.4,3.5c0.1,1.6-0.1,3.2,0,4.9c0.2,4.1-2.9,2.7-5,3c-2.3,0.3-3.7-0.2-3.7-3.1
		c0.1-12,0.1-24,0-35.9c0-3.1,1.5-3.5,3.9-3.3c2.2,0.2,5-0.8,4.8,3.2C430.3,40.4,430.8,47.3,430.1,55z"/>
	<path d="M407.4,42.5c-10.9-3.8-19.9,2.9-20,14.9c-0.1,5.7,1.5,10.8,6.7,13.7c5.8,3.2,12.1,2.8,18.1,0.5c2.6-1,1.8-3.7,1.3-5.6
		c-0.6-2.2-2.3-0.5-3.4-0.3c-2.5,0.6-4.9,1-7.4,0.9c-2.5-0.1-4.6-1.1-5.8-3.4c-1.2-2.2-0.8-3.5,2.1-3.4c4.5,0.1,9,0,13.5,0
		c1.2,0,2.4,0,3-1.6C417.3,52.5,413.2,44.5,407.4,42.5z M407,52.3c-0.3,2.2-2.3,1.1-3.6,1.4c-0.6,0.1-1.2,0-1.9,0
		c-0.4,0-0.8,0.1-1.1,0c-1.2-0.3-3.2,0.8-3.6-0.9c-0.4-2,0.9-3.5,2.7-4.4c1.5-0.7,3.2-0.7,4.7-0.1C405.9,49.1,407.3,50.4,407,52.3z"
		/>
	<path d="M535.6,60.8c0,3-0.1,6,0,9c0,2-0.6,2.9-2.8,3c-5.8,0.3-5.9,0.3-5.9-5.4c0-4.1,0-8.2,0-12.3c-0.1-4.2-1.4-6-4.3-6.3
		c-3.6-0.3-6,1.7-6.3,5.8c-0.4,4.7-0.4,9.5-0.2,14.2c0.2,3.5-1.4,4.1-4.4,4.1c-3.1,0-4.5-0.5-4.4-4.1c0.3-7.6,0.1-15.2,0.1-22.8
		c0-1.2-0.7-3.2,1.2-3.4c1.9-0.2,4.4-1.3,5.7,1.2c0.9,1.8,1.5,1.4,2.7,0.5c3.5-2.7,7.5-3.2,11.7-1.9c4.2,1.3,6.5,4.3,6.8,9.2
		C535.7,54.5,535.5,57.7,535.6,60.8C535.6,60.8,535.6,60.8,535.6,60.8z"/>
	<path d="M342,57.9c0-2.2,0-4.5,0-6.7c0-1.4-0.3-2.2-2-2.6c-2.3-0.5-2.8-3-0.8-4.2c2.7-1.6,4.3-3.7,5-6.6c0.7-2.5,2.6-2.3,4.5-2.1
		c2.1,0.2,1.8,1.9,1.7,3.1c-0.4,3.4,1.6,3.5,4.1,3.5c1.6,0,3.9-1.1,4.5,1.9c0.6,3.4-0.2,4.5-3.8,4.5c-4.8,0.1-4.8,0.1-4.8,5
		c0,2.6,0,5.2,0,7.9c0.1,4,1.5,5.1,5.4,4.7c1.4-0.2,3.4-1.6,3.5,1.4c0.1,2.3,0.4,4.4-2.8,5.1C346.8,75,342,71.4,342,61.3
		C342,60.2,342,59,342,57.9C342,57.9,342,57.9,342,57.9z"/>
	<path d="M373.2,46.6c2.4-2.5,4.7-4.7,8-4.9c1.6-0.1,4.1-0.7,3.7,2.1c-0.3,2.1,1.9,5.5-2.8,5.8c-6.2,0.4-8.3,2.9-8.3,9.2
		c0,3.7-0.1,7.5,0,11.2c0.1,3.3-2.2,2.7-4.1,2.6c-1.9-0.1-4.6,1-4.6-2.6c0-8.4,0-16.7,0-25.1c0-1.3,0.1-2.7,1.9-2.6
		c1.7,0.1,3.8-1,5,1.2C372.5,44.4,372.8,45.3,373.2,46.6z"/>
	<path d="M499,57.8c0,4-0.1,8,0,12c0.1,3.2-1.9,3-3.9,2.9c-2-0.2-4.8,1.1-4.8-2.8c0.1-8.2,0.1-16.5,0-24.7c0-3.5,2.3-2.9,4.3-2.9
		c2,0,4.5-0.8,4.4,2.8C498.9,49.3,499,53.6,499,57.8z"/>
	<path d="M216.5,23.5c2.5,0,4.1,2.5,2.8,4.7c-1.9,3.2-4.9,5.3-8.5,6.1c-2.5,0.6-3.4-0.9-3.1-3.2C208,28.1,213.3,23.5,216.5,23.5z"/>
	<path d="M494.6,38.9c-2.7-0.3-4.5-1.5-4.4-4.5c0.1-3,2.1-4.1,4.7-4c2.8,0,4.5,1.5,4.4,4.4C499.3,37.7,497.3,38.7,494.6,38.9z"/>
</g>
</svg>
